#!OML:ASF F:\VICON\USERDATA\INSTALL\rory3\rory3.ASF
:FULLY-SPECIFIED
:DEGREES
224
root 5.36034 17.8332 11.2972 -2.29676 -1.49369 2.27764
lowerback 12.0663 0.158463 -3.12131
upperback 0.140233 -0.199992 0.377381
thorax -6.6206 0.00871947 2.19656
lowerneck -16.6842 -2.89636 -2.05072
upperneck 16.3157 -3.78561 1.70391
head 7.86126 -1.75973 0.461852
rclavicle -4.55962e-015 2.98177e-015
rhumerus -33.5557 -21.3904 -76.8909
rradius 25.3633
rwrist 5.24617
rhand -14.4366 22.7684
rfingers 7.12502
rthumb 11.7081 -6.88446
lclavicle -4.55962e-015 2.98177e-015
lhumerus -27.004 4.35337 77.6965
lradius 29.1202
lwrist 5.31433
lhand -27.3352 22.5936
lfingers 7.12502
lthumb -0.743851 52.572
rfemur -31.6692 1.14076 19.8053
rtibia 56.6718
rfoot -11.0969 -11.3927
rtoes -4.87903
lfemur 0.707279 -1.28826 -27.9214
ltibia 24.3344
lfoot -18.5392 -4.32671
ltoes 6.22782
225
root 5.35819 17.8361 11.4869 -2.16218 -1.48049 2.33773
lowerback 11.7888 0.089807 -3.24624
upperback 0.212838 -0.294788 0.420253
thorax -6.38069 -0.038254 2.32639
lowerneck -16.7475 -2.90545 -2.03701
upperneck 16.2035 -3.78808 1.65449
head 7.83375 -1.765 0.442801
rclavicle -7.16867e-015 -1.59028e-015
rhumerus -33.6123 -21.055 -77.0086
rradius 25.7237
rwrist 4.84047
rhand -14.1295 23.5573
rfingers 7.12502
rthumb 12.0042 -6.07845
lclavicle -7.16867e-015 -1.59028e-015
lhumerus -26.4158 4.42209 77.6838
lradius 29.2638
lwrist 5.29558
lhand -28.297 20.8667
lfingers 7.12502
lthumb -1.67275 50.8399
rfemur -31.9048 1.07795 19.7576
rtibia 54.0293
rfoot -10.5939 -11.354
rtoes -5.28356
lfemur 1.79614 -1.34165 -28.1006
ltibia 23.5083
lfoot -18.9531 -4.15593
ltoes 6.7552
226
root 5.34905 17.8345 11.6617 -1.98179 -1.37714 2.23833
lowerback 11.8812 -0.0170565 -3.30353
upperback 0.121575 -0.442321 0.525189
thorax -6.51909 -0.103142 2.49641
lowerneck -17.0265 -2.82003 -1.94632
upperneck 16.3679 -3.67318 1.55897
head 7.93119 -1.71152 0.405353
rclavicle -3.72721e-015 -7.55382e-015
rhumerus -33.7725 -20.8137 -77.0017
rradius 25.9267
rwrist 4.85377
rhand -14.535 25.6567
rfingers 7.12502
rthumb 11.6132 -4.00149
lclavicle -3.72721e-015 -7.55382e-015
lhumerus -26.0426 4.11954 77.7132
lradius 29.5769
lwrist 5.72323
lhand -28.7555 23.0965
lfingers 7.12502
lthumb -2.11559 53.0657
rfemur -32.1208 1.12199 19.9029
rtibia 51.1893
rfoot -9.85283 -11.4611
rtoes -5.01241
lfemur 2.71298 -1.36459 -28.0419
ltibia 22.7091
lfoot -19.051 -4.34092
ltoes 8.41913
227
root 5.33405 17.8346 11.8182 -1.54162 -1.16303 1.99271
lowerback 11.8609 -0.112376 -3.19014
upperback -0.0700615 -0.548342 0.628932
thorax -6.70431 -0.150761 2.56161
lowerneck -17.4221 -2.79458 -1.91813
upperneck 16.8092 -3.64948 1.57065
head 8.14726 -1.69235 0.399875
rclavicle -1.18277e-014 -1.35174e-014
rhumerus -33.7868 -21.167 -76.8203
rradius 25.5956
rwrist 5.42833
rhand -15.7776 27.6279
rfingers 7.12502
rthumb 10.4147 -2.0942
lclavicle -1.18277e-014 -1.35174e-014
lhumerus -25.6698 3.42678 77.8305
lradius 30.1798
lwrist 6.28647
lhand -28.4465 26.5028
lfingers 7.12502
lthumb -1.81714 56.4748
rfemur -32.6214 1.43433 20.1653
rtibia 48.2376
rfoot -8.84179 -11.7036
rtoes -4.83468
lfemur 3.23017 -1.27507 -27.7182
ltibia 21.8183
lfoot -18.7382 -4.49269
ltoes 8.59469
228
root 5.32615 17.8364 11.9963 -1.28108 -1.06116 2.08018
lowerback 11.6739 -0.158146 -3.33901
upperback -0.099604 -0.622382 0.647641
thorax -6.62369 -0.182923 2.67605
lowerneck -17.6988 -2.79379 -1.93334
upperneck 16.968 -3.64625 1.58983
head 8.24982 -1.68698 0.404742
rclavicle 4.42296e-015 8.74653e-015
rhumerus -33.8789 -21.059 -76.8115
rradius 25.7132
rwrist 5.44523
rhand -16.3899 26.6843
rfingers 7.12502
rthumb 9.82399 -3.06651
lclavicle 4.42296e-015 8.74653e-015
lhumerus -25.3031 2.92925 77.967
lradius 31.0667
lwrist 6.90034
lhand -27.3125 29.9512
lfingers 7.12502
lthumb -0.721924 59.9297
rfemur -32.8222 1.85582 19.9702
rtibia 45.2812
rfoot -7.84503 -11.8113
rtoes -3.51246
lfemur 4.00275 -1.04574 -27.8213
ltibia 20.9749
lfoot -18.7725 -4.2126
ltoes 6.45942
